{
 "cells": [
  {
   "cell_type": "code",
   "execution_count": 19,
   "id": "93d2fb25",
   "metadata": {
    "scrolled": true
   },
   "outputs": [
    {
     "name": "stdout",
     "output_type": "stream",
     "text": [
      "Wall time: 2min 16s\n"
     ]
    },
    {
     "name": "stderr",
     "output_type": "stream",
     "text": [
      "ffmpeg version 2022-03-21-git-505a7d39cd-full_build-www.gyan.dev Copyright (c) 2000-2022 the FFmpeg developers\n",
      "  built with gcc 11.2.0 (Rev7, Built by MSYS2 project)\n",
      "  configuration: --enable-gpl --enable-version3 --enable-static --disable-w32threads --disable-autodetect --enable-fontconfig --enable-iconv --enable-gnutls --enable-libxml2 --enable-gmp --enable-bzlib --enable-lzma --enable-libsnappy --enable-zlib --enable-librist --enable-libsrt --enable-libssh --enable-libzmq --enable-avisynth --enable-libbluray --enable-libcaca --enable-sdl2 --enable-libdav1d --enable-libdavs2 --enable-libuavs3d --enable-libzvbi --enable-librav1e --enable-libsvtav1 --enable-libwebp --enable-libx264 --enable-libx265 --enable-libxavs2 --enable-libxvid --enable-libaom --enable-libopenjpeg --enable-libvpx --enable-mediafoundation --enable-libass --enable-frei0r --enable-libfreetype --enable-libfribidi --enable-libvidstab --enable-libvmaf --enable-libzimg --enable-amf --enable-cuda-llvm --enable-cuvid --enable-ffnvcodec --enable-nvdec --enable-nvenc --enable-d3d11va --enable-dxva2 --enable-libmfx --enable-libshaderc --enable-vulkan --enable-libplacebo --enable-opencl --enable-libcdio --enable-libgme --enable-libmodplug --enable-libopenmpt --enable-libopencore-amrwb --enable-libmp3lame --enable-libshine --enable-libtheora --enable-libtwolame --enable-libvo-amrwbenc --enable-libilbc --enable-libgsm --enable-libopencore-amrnb --enable-libopus --enable-libspeex --enable-libvorbis --enable-ladspa --enable-libbs2b --enable-libflite --enable-libmysofa --enable-librubberband --enable-libsoxr --enable-chromaprint\n",
      "  libavutil      57. 24.101 / 57. 24.101\n",
      "  libavcodec     59. 25.100 / 59. 25.100\n",
      "  libavformat    59. 20.101 / 59. 20.101\n",
      "  libavdevice    59.  6.100 / 59.  6.100\n",
      "  libavfilter     8. 29.100 /  8. 29.100\n",
      "  libswscale      6.  6.100 /  6.  6.100\n",
      "  libswresample   4.  6.100 /  4.  6.100\n",
      "  libpostproc    56.  5.100 / 56.  5.100\n",
      "Input #0, mov,mp4,m4a,3gp,3g2,mj2, from 'rana.mp4':\n",
      "  Metadata:\n",
      "    major_brand     : mp42\n",
      "    minor_version   : 0\n",
      "    compatible_brands: isommp42\n",
      "    creation_time   : 2022-04-19T05:09:00.000000Z\n",
      "  Duration: 00:41:43.90, start: 0.000000, bitrate: 490 kb/s\n",
      "  Stream #0:0[0x1](und): Audio: aac (LC) (mp4a / 0x6134706D), 32000 Hz, mono, fltp, 126 kb/s (default)\n",
      "    Metadata:\n",
      "      creation_time   : 2022-04-19T05:09:00.000000Z\n",
      "      handler_name    : AAC audio\n",
      "      vendor_id       : [0][0][0][0]\n",
      "  Stream #0:1[0x2](und): Video: h264 (High) (avc1 / 0x31637661), yuv420p(progressive), 1920x1080, 362 kb/s, 25 fps, 25 tbr, 30k tbn (default)\n",
      "    Metadata:\n",
      "      creation_time   : 2022-04-19T05:09:00.000000Z\n",
      "      handler_name    : H.264/AVC video\n",
      "      vendor_id       : [0][0][0][0]\n",
      "      encoder         : AVC Coding\n",
      "Stream mapping:\n",
      "  Stream #0:1 -> #0:0 (h264 (native) -> h264 (libx264))\n",
      "  Stream #0:0 -> #0:1 (copy)\n",
      "Press [q] to stop, [?] for help\n",
      "[libx264 @ 000001eea4b60740] using cpu capabilities: MMX2 SSE2Fast SSSE3 SSE4.2 AVX FMA3 BMI2 AVX2\n",
      "[libx264 @ 000001eea4b60740] profile High, level 4.0, 4:2:0, 8-bit\n",
      "[libx264 @ 000001eea4b60740] 264 - core 164 r3094 bfc87b7 - H.264/MPEG-4 AVC codec - Copyleft 2003-2022 - http://www.videolan.org/x264.html - options: cabac=1 ref=3 deblock=1:0:0 analyse=0x3:0x113 me=hex subme=7 psy=1 psy_rd=1.00:0.00 mixed_ref=1 me_range=16 chroma_me=1 trellis=1 8x8dct=1 cqm=0 deadzone=21,11 fast_pskip=1 chroma_qp_offset=-2 threads=6 lookahead_threads=1 sliced_threads=0 nr=0 decimate=1 interlaced=0 bluray_compat=0 constrained_intra=0 bframes=3 b_pyramid=2 b_adapt=1 b_bias=0 direct=1 weightb=1 open_gop=0 weightp=2 keyint=250 keyint_min=25 scenecut=40 intra_refresh=0 rc_lookahead=40 rc=crf mbtree=1 crf=23.0 qcomp=0.60 qpmin=0 qpmax=69 qpstep=4 ip_ratio=1.40 aq=1:1.00\n",
      "Output #0, mp4, to 'output1.mp4':\n",
      "  Metadata:\n",
      "    major_brand     : mp42\n",
      "    minor_version   : 0\n",
      "    compatible_brands: isommp42\n",
      "    encoder         : Lavf59.20.101\n",
      "  Stream #0:0(und): Video: h264 (avc1 / 0x31637661), yuv420p(progressive), 1920x1080, q=2-31, 25 fps, 12800 tbn (default)\n",
      "    Metadata:\n",
      "      creation_time   : 2022-04-19T05:09:00.000000Z\n",
      "      handler_name    : H.264/AVC video\n",
      "      vendor_id       : [0][0][0][0]\n",
      "      encoder         : Lavc59.25.100 libx264\n",
      "    Side data:\n",
      "      cpb: bitrate max/min/avg: 0/0/0 buffer size: 0 vbv_delay: N/A\n",
      "  Stream #0:1(und): Audio: aac (LC) (mp4a / 0x6134706D), 32000 Hz, mono, fltp, 126 kb/s (default)\n",
      "    Metadata:\n",
      "      creation_time   : 2022-04-19T05:09:00.000000Z\n",
      "      handler_name    : AAC audio\n",
      "      vendor_id       : [0][0][0][0]\n",
      "frame=    1 fps=0.3 q=0.0 size=       0kB time=00:00:00.00 bitrate=N/A speed=   0x    \n",
      "frame=   58 fps= 16 q=28.0 size=       0kB time=00:00:01.92 bitrate=   0.2kbits/s speed=0.516x    \n",
      "frame=   96 fps= 22 q=28.0 size=       0kB time=00:00:03.96 bitrate=   0.1kbits/s speed=0.93x    \n",
      "frame=  130 fps= 27 q=28.0 size=       0kB time=00:00:04.99 bitrate=   0.1kbits/s speed=1.04x    \n",
      "frame=  166 fps= 31 q=28.0 size=       0kB time=00:00:07.04 bitrate=   0.1kbits/s speed=1.33x    \n",
      "frame=  200 fps= 34 q=28.0 size=     256kB time=00:00:08.06 bitrate= 260.1kbits/s speed=1.39x    \n",
      "frame=  231 fps= 37 q=28.0 size=     256kB time=00:00:09.08 bitrate= 230.8kbits/s speed=1.44x    \n",
      "frame=  254 fps= 37 q=28.0 size=     256kB time=00:00:10.11 bitrate= 207.4kbits/s speed=1.48x    \n",
      "frame=  273 fps= 37 q=28.0 size=     256kB time=00:00:11.13 bitrate= 188.4kbits/s speed=1.51x    \n",
      "frame=  302 fps= 38 q=28.0 size=     512kB time=00:00:12.16 bitrate= 345.0kbits/s speed=1.53x    \n",
      "frame=  340 fps= 40 q=28.0 size=     512kB time=00:00:14.20 bitrate= 295.2kbits/s speed=1.68x    \n",
      "frame=  374 fps= 42 q=28.0 size=     512kB time=00:00:15.23 bitrate= 275.4kbits/s speed=1.69x    \n",
      "frame=  394 fps= 41 q=28.0 size=     512kB time=00:00:16.25 bitrate= 258.0kbits/s speed=1.71x    \n",
      "frame=  410 fps= 41 q=28.0 size=     512kB time=00:00:16.25 bitrate= 258.0kbits/s speed=1.62x    \n",
      "frame=  436 fps= 41 q=28.0 size=     512kB time=00:00:17.28 bitrate= 242.7kbits/s speed=1.64x    \n",
      "frame=  465 fps= 42 q=28.0 size=     512kB time=00:00:19.32 bitrate= 217.0kbits/s speed=1.75x    \n",
      "frame=  488 fps= 42 q=28.0 size=     512kB time=00:00:19.32 bitrate= 217.0kbits/s speed=1.67x    \n",
      "frame=  513 fps= 42 q=28.0 size=     768kB time=00:00:20.38 bitrate= 308.7kbits/s speed=1.68x    \n",
      "frame=  540 fps= 43 q=28.0 size=     768kB time=00:00:22.40 bitrate= 280.9kbits/s speed=1.77x    \n",
      "frame=  552 fps= 42 q=28.0 size=     768kB time=00:00:22.40 bitrate= 280.9kbits/s speed=1.69x    \n",
      "frame=  580 fps= 42 q=28.0 size=     768kB time=00:00:23.42 bitrate= 268.6kbits/s speed= 1.7x    \n",
      "frame=  593 fps= 42 q=28.0 size=     768kB time=00:00:24.44 bitrate= 257.4kbits/s speed=1.71x    \n",
      "frame=  620 fps= 42 q=28.0 size=    1024kB time=00:00:25.47 bitrate= 329.3kbits/s speed=1.72x    \n",
      "frame=  645 fps= 42 q=28.0 size=    1024kB time=00:00:26.49 bitrate= 316.6kbits/s speed=1.73x    \n",
      "frame=  670 fps= 42 q=28.0 size=    1024kB time=00:00:27.52 bitrate= 304.8kbits/s speed=1.74x    \n",
      "frame=  698 fps= 43 q=28.0 size=    1024kB time=00:00:28.54 bitrate= 293.9kbits/s speed=1.75x    \n",
      "frame=  726 fps= 43 q=28.0 size=    1024kB time=00:00:29.56 bitrate= 283.7kbits/s speed=1.75x    \n",
      "frame=  754 fps= 43 q=28.0 size=    1024kB time=00:00:30.59 bitrate= 274.2kbits/s speed=1.76x    \n",
      "frame=  784 fps= 44 q=28.0 size=    1024kB time=00:00:31.61 bitrate= 265.3kbits/s speed=1.77x    \n",
      "frame=  805 fps= 44 q=28.0 size=    1280kB time=00:00:32.64 bitrate= 321.3kbits/s speed=1.78x    \n",
      "frame=  829 fps= 44 q=28.0 size=    1280kB time=00:00:33.66 bitrate= 311.5kbits/s speed=1.78x    \n",
      "frame=  858 fps= 44 q=28.0 size=    1280kB time=00:00:33.66 bitrate= 311.5kbits/s speed=1.74x    \n",
      "frame=  890 fps= 45 q=28.0 size=    1280kB time=00:00:35.71 bitrate= 293.6kbits/s speed=1.79x    \n",
      "frame=  918 fps= 45 q=28.0 size=    1536kB time=00:00:36.73 bitrate= 342.5kbits/s speed= 1.8x    \n",
      "frame=  942 fps= 45 q=28.0 size=    1536kB time=00:00:37.76 bitrate= 333.2kbits/s speed= 1.8x    \n",
      "frame=  967 fps= 45 q=28.0 size=    1536kB time=00:00:38.78 bitrate= 324.4kbits/s speed=1.81x    \n",
      "frame=  995 fps= 45 q=28.0 size=    1536kB time=00:00:39.80 bitrate= 316.1kbits/s speed=1.81x    \n",
      "frame= 1026 fps= 46 q=28.0 size=    1536kB time=00:00:40.83 bitrate= 308.2kbits/s speed=1.81x    \n",
      "frame= 1052 fps= 46 q=28.0 size=    1792kB time=00:00:41.85 bitrate= 350.7kbits/s speed=1.81x    \n",
      "frame= 1087 fps= 46 q=28.0 size=    1792kB time=00:00:42.88 bitrate= 342.4kbits/s speed=1.82x    \n",
      "frame= 1116 fps= 46 q=28.0 size=    1792kB time=00:00:44.92 bitrate= 326.8kbits/s speed=1.87x    \n",
      "frame= 1150 fps= 47 q=28.0 size=    1792kB time=00:00:45.95 bitrate= 319.5kbits/s speed=1.87x    \n",
      "frame= 1180 fps= 47 q=28.0 size=    1792kB time=00:00:46.97 bitrate= 312.5kbits/s speed=1.87x    \n",
      "frame= 1213 fps= 47 q=28.0 size=    1792kB time=00:00:48.03 bitrate= 305.6kbits/s speed=1.88x    \n",
      "frame= 1244 fps= 48 q=28.0 size=    1792kB time=00:00:50.04 bitrate= 293.3kbits/s speed=1.92x    \n",
      "frame= 1278 fps= 48 q=28.0 size=    2048kB time=00:00:51.07 bitrate= 328.5kbits/s speed=1.92x    \n",
      "frame= 1302 fps= 48 q=28.0 size=    2048kB time=00:00:52.09 bitrate= 322.1kbits/s speed=1.92x    \n",
      "frame= 1336 fps= 48 q=28.0 size=    2048kB time=00:00:53.12 bitrate= 315.8kbits/s speed=1.92x    \n",
      "frame= 1367 fps= 49 q=28.0 size=    2304kB time=00:00:55.16 bitrate= 342.1kbits/s speed=1.96x    \n",
      "frame= 1395 fps= 49 q=28.0 size=    2304kB time=00:00:56.19 bitrate= 335.9kbits/s speed=1.96x    \n",
      "frame= 1426 fps= 49 q=28.0 size=    2304kB time=00:00:57.21 bitrate= 329.9kbits/s speed=1.96x    \n",
      "frame= 1453 fps= 49 q=28.0 size=    2304kB time=00:00:58.24 bitrate= 324.1kbits/s speed=1.96x    \n",
      "frame= 1486 fps= 49 q=28.0 size=    2304kB time=00:00:59.26 bitrate= 318.5kbits/s speed=1.96x    \n",
      "frame= 1518 fps= 49 q=28.0 size=    2304kB time=00:01:01.31 bitrate= 307.8kbits/s speed=1.99x    \n",
      "frame= 1547 fps= 49 q=28.0 size=    2560kB time=00:01:02.33 bitrate= 336.4kbits/s speed=1.99x    \n",
      "frame= 1578 fps= 50 q=28.0 size=    2560kB time=00:01:03.36 bitrate= 331.0kbits/s speed=1.99x    \n",
      "frame= 1608 fps= 50 q=28.0 size=    2560kB time=00:01:04.38 bitrate= 325.7kbits/s speed=1.99x    \n",
      "frame= 1636 fps= 50 q=28.0 size=    2816kB time=00:01:05.40 bitrate= 352.7kbits/s speed=1.99x    \n",
      "frame= 1664 fps= 50 q=28.0 size=    2816kB time=00:01:06.43 bitrate= 347.3kbits/s speed=1.99x    \n",
      "frame= 1686 fps= 50 q=28.0 size=    2816kB time=00:01:07.45 bitrate= 342.0kbits/s speed=1.99x    \n",
      "frame= 1711 fps= 50 q=28.0 size=    2816kB time=00:01:08.48 bitrate= 336.9kbits/s speed=1.99x    \n",
      "frame= 1739 fps= 50 q=28.0 size=    3072kB time=00:01:09.50 bitrate= 362.1kbits/s speed=1.99x    \n",
      "frame= 1767 fps= 50 q=28.0 size=    3072kB time=00:01:10.52 bitrate= 356.8kbits/s speed=1.99x    \n",
      "frame= 1797 fps= 50 q=28.0 size=    3072kB time=00:01:11.58 bitrate= 351.6kbits/s speed=1.99x    \n",
      "frame= 1828 fps= 50 q=28.0 size=    3072kB time=00:01:13.60 bitrate= 341.9kbits/s speed=2.02x    \n",
      "frame= 1858 fps= 50 q=28.0 size=    3072kB time=00:01:14.62 bitrate= 337.2kbits/s speed=2.02x    \n",
      "frame= 1889 fps= 50 q=28.0 size=    3328kB time=00:01:15.64 bitrate= 360.4kbits/s speed=2.02x    \n",
      "frame= 1918 fps= 51 q=28.0 size=    3328kB time=00:01:16.67 bitrate= 355.6kbits/s speed=2.02x    \n",
      "frame= 1947 fps= 51 q=28.0 size=    3328kB time=00:01:17.72 bitrate= 350.8kbits/s speed=2.02x    \n",
      "frame= 1978 fps= 51 q=28.0 size=    3328kB time=00:01:19.74 bitrate= 341.9kbits/s speed=2.04x    \n",
      "frame= 2009 fps= 51 q=28.0 size=    3328kB time=00:01:20.76 bitrate= 337.6kbits/s speed=2.04x    \n",
      "frame= 2042 fps= 51 q=28.0 size=    3584kB time=00:01:21.79 bitrate= 359.0kbits/s speed=2.04x    \n",
      "frame= 2071 fps= 51 q=28.0 size=    3584kB time=00:01:22.81 bitrate= 354.5kbits/s speed=2.04x    \n",
      "frame= 2097 fps= 51 q=28.0 size=    3584kB time=00:01:23.84 bitrate= 350.2kbits/s speed=2.04x    \n",
      "frame= 2120 fps= 51 q=28.0 size=    3584kB time=00:01:24.86 bitrate= 346.0kbits/s speed=2.04x    \n",
      "frame= 2149 fps= 51 q=28.0 size=    3840kB time=00:01:26.91 bitrate= 361.9kbits/s speed=2.06x    \n",
      "frame= 2172 fps= 51 q=25.0 size=    3840kB time=00:01:26.94 bitrate= 361.8kbits/s speed=2.03x    \n",
      "frame= 2200 fps= 51 q=28.0 size=    3840kB time=00:01:28.96 bitrate= 353.6kbits/s speed=2.06x    \n",
      "frame= 2215 fps= 51 q=28.0 size=    3840kB time=00:01:28.96 bitrate= 353.6kbits/s speed=2.03x    \n",
      "frame= 2234 fps= 50 q=28.0 size=    4096kB time=00:01:29.98 bitrate= 372.9kbits/s speed=2.03x    \n",
      "frame= 2255 fps= 50 q=28.0 size=    4096kB time=00:01:31.00 bitrate= 368.7kbits/s speed=2.03x    \n",
      "frame= 2277 fps= 50 q=28.0 size=    4096kB time=00:01:32.03 bitrate= 364.6kbits/s speed=2.03x    \n",
      "frame= 2301 fps= 50 q=28.0 size=    4352kB time=00:01:33.05 bitrate= 383.1kbits/s speed=2.03x    \n",
      "frame= 2326 fps= 50 q=28.0 size=    4352kB time=00:01:34.08 bitrate= 379.0kbits/s speed=2.03x    \n",
      "frame= 2352 fps= 50 q=28.0 size=    4352kB time=00:01:35.10 bitrate= 374.9kbits/s speed=2.03x    \n",
      "frame= 2376 fps= 50 q=28.0 size=    4608kB time=00:01:36.12 bitrate= 392.7kbits/s speed=2.03x    \n",
      "frame= 2399 fps= 50 q=28.0 size=    4608kB time=00:01:37.12 bitrate= 388.7kbits/s speed=2.02x    \n",
      "frame= 2422 fps= 50 q=25.0 size=    4608kB time=00:01:37.18 bitrate= 388.4kbits/s speed=   2x    \n",
      "frame= 2441 fps= 50 q=28.0 size=    4864kB time=00:01:38.17 bitrate= 405.9kbits/s speed=   2x    \n",
      "frame= 2465 fps= 50 q=28.0 size=    4864kB time=00:01:39.20 bitrate= 401.7kbits/s speed=   2x    \n",
      "frame= 2488 fps= 50 q=28.0 size=    4864kB time=00:01:39.20 bitrate= 401.7kbits/s speed=1.98x    \n",
      "frame= 2513 fps= 50 q=28.0 size=    4864kB time=00:01:40.22 bitrate= 397.6kbits/s speed=1.98x    \n",
      "frame= 2537 fps= 50 q=28.0 size=    5120kB time=00:01:41.24 bitrate= 414.3kbits/s speed=1.98x    \n",
      "frame= 2564 fps= 50 q=28.0 size=    5120kB time=00:01:42.27 bitrate= 410.1kbits/s speed=1.98x    \n",
      "frame= 2589 fps= 50 q=28.0 size=    5120kB time=00:01:43.29 bitrate= 406.1kbits/s speed=1.98x    \n",
      "frame= 2615 fps= 50 q=28.0 size=    5120kB time=00:01:44.32 bitrate= 402.1kbits/s speed=1.98x    \n",
      "frame= 2644 fps= 50 q=28.0 size=    5376kB time=00:01:45.34 bitrate= 418.1kbits/s speed=1.98x    \n",
      "frame= 2671 fps= 50 q=28.0 size=    5376kB time=00:01:46.36 bitrate= 414.0kbits/s speed=1.98x    \n",
      "frame= 2697 fps= 50 q=28.0 size=    5376kB time=00:01:47.42 bitrate= 410.0kbits/s speed=1.98x    \n",
      "frame= 2727 fps= 50 q=28.0 size=    5376kB time=00:01:49.44 bitrate= 402.4kbits/s speed=   2x    \n",
      "frame= 2758 fps= 50 q=28.0 size=    5632kB time=00:01:50.46 bitrate= 417.7kbits/s speed=   2x    \n",
      "frame= 2790 fps= 50 q=28.0 size=    5632kB time=00:01:51.48 bitrate= 413.8kbits/s speed=   2x    \n",
      "frame= 2820 fps= 50 q=28.0 size=    5632kB time=00:01:52.51 bitrate= 410.1kbits/s speed=   2x    \n",
      "frame= 2842 fps= 50 q=28.0 size=    5632kB time=00:01:53.53 bitrate= 406.4kbits/s speed=   2x    \n",
      "frame= 2862 fps= 50 q=28.0 size=    5632kB time=00:01:54.56 bitrate= 402.7kbits/s speed=   2x    \n",
      "frame= 2882 fps= 50 q=28.0 size=    5632kB time=00:01:55.58 bitrate= 399.2kbits/s speed=   2x    \n",
      "frame= 2906 fps= 50 q=28.0 size=    5632kB time=00:01:56.60 bitrate= 395.7kbits/s speed=   2x    \n",
      "frame= 2934 fps= 50 q=28.0 size=    5632kB time=00:01:57.63 bitrate= 392.2kbits/s speed=   2x    \n",
      "frame= 2964 fps= 50 q=28.0 size=    5888kB time=00:01:58.65 bitrate= 406.5kbits/s speed=   2x    \n",
      "frame= 2996 fps= 50 q=28.0 size=    5888kB time=00:01:59.68 bitrate= 403.0kbits/s speed=   2x    \n",
      "frame= 3028 fps= 50 q=28.0 size=    5888kB time=00:02:01.72 bitrate= 396.3kbits/s speed=2.01x    \n",
      "frame= 3060 fps= 50 q=28.0 size=    5888kB time=00:02:02.75 bitrate= 392.9kbits/s speed=2.01x    \n",
      "frame= 3091 fps= 50 q=28.0 size=    5888kB time=00:02:03.77 bitrate= 389.7kbits/s speed=2.01x    \n",
      "frame= 3119 fps= 50 q=28.0 size=    5888kB time=00:02:04.80 bitrate= 386.5kbits/s speed=2.01x    \n",
      "frame= 3144 fps= 50 q=28.0 size=    5888kB time=00:02:05.82 bitrate= 383.4kbits/s speed=2.01x    \n",
      "frame= 3160 fps= 50 q=28.0 size=    6144kB time=00:02:06.84 bitrate= 396.8kbits/s speed=2.01x    \n",
      "frame= 3178 fps= 50 q=28.0 size=    6144kB time=00:02:07.87 bitrate= 393.6kbits/s speed=2.01x    \n",
      "frame= 3214 fps= 50 q=28.0 size=    6144kB time=00:02:08.89 bitrate= 390.5kbits/s speed=2.01x    \n",
      "frame= 3238 fps= 50 q=28.0 size=    6144kB time=00:02:09.92 bitrate= 387.4kbits/s speed=2.01x    \n",
      "frame= 3270 fps= 50 q=28.0 size=    6144kB time=00:02:10.94 bitrate= 384.4kbits/s speed=2.01x    \n",
      "frame= 3300 fps= 50 q=28.0 size=    6144kB time=00:02:12.99 bitrate= 378.5kbits/s speed=2.03x    \n",
      "frame= 3334 fps= 50 q=28.0 size=    6400kB time=00:02:14.01 bitrate= 391.2kbits/s speed=2.03x    \n",
      "frame= 3366 fps= 50 q=28.0 size=    6400kB time=00:02:15.04 bitrate= 388.2kbits/s speed=2.02x    \n",
      "frame= 3401 fps= 51 q=28.0 size=    6400kB time=00:02:17.08 bitrate= 382.4kbits/s speed=2.04x    \n",
      "frame= 3430 fps= 51 q=28.0 size=    6400kB time=00:02:18.11 bitrate= 379.6kbits/s speed=2.04x    \n",
      "frame= 3464 fps= 51 q=28.0 size=    6400kB time=00:02:19.13 bitrate= 376.8kbits/s speed=2.04x    \n",
      "frame= 3494 fps= 51 q=28.0 size=    6656kB time=00:02:20.16 bitrate= 389.0kbits/s speed=2.04x    \n",
      "frame= 3524 fps= 51 q=28.0 size=    6656kB time=00:02:21.18 bitrate= 386.2kbits/s speed=2.04x    \n",
      "frame= 3552 fps= 51 q=28.0 size=    6656kB time=00:02:22.20 bitrate= 383.4kbits/s speed=2.04x    \n",
      "frame= 3582 fps= 51 q=28.0 size=    6656kB time=00:02:23.23 bitrate= 380.7kbits/s speed=2.04x    \n",
      "frame= 3610 fps= 51 q=28.0 size=    6912kB time=00:02:24.25 bitrate= 392.5kbits/s speed=2.04x    \n",
      "frame= 3638 fps= 51 q=28.0 size=    6912kB time=00:02:26.30 bitrate= 387.0kbits/s speed=2.05x    \n",
      "frame= 3672 fps= 51 q=28.0 size=    7168kB time=00:02:27.32 bitrate= 398.6kbits/s speed=2.05x    \n",
      "frame= 3699 fps= 51 q=28.0 size=    7168kB time=00:02:28.35 bitrate= 395.8kbits/s speed=2.05x    \n",
      "frame= 3725 fps= 51 q=28.0 size=    7168kB time=00:02:29.37 bitrate= 393.1kbits/s speed=2.05x    \n",
      "frame= 3762 fps= 51 q=28.0 size=    7168kB time=00:02:31.42 bitrate= 387.8kbits/s speed=2.06x    \n",
      "frame= 3797 fps= 51 q=28.0 size=    7168kB time=00:02:32.44 bitrate= 385.2kbits/s speed=2.06x    \n",
      "frame= 3827 fps= 51 q=28.0 size=    7424kB time=00:02:33.47 bitrate= 396.3kbits/s speed=2.06x    \n",
      "frame= 3849 fps= 51 q=28.0 size=    7424kB time=00:02:34.49 bitrate= 393.7kbits/s speed=2.06x    \n",
      "frame= 3878 fps= 51 q=28.0 size=    7680kB time=00:02:35.52 bitrate= 404.5kbits/s speed=2.06x    \n",
      "frame= 3908 fps= 51 q=28.0 size=    7680kB time=00:02:36.54 bitrate= 401.9kbits/s speed=2.06x    \n",
      "frame= 3940 fps= 51 q=28.0 size=    7680kB time=00:02:37.56 bitrate= 399.3kbits/s speed=2.06x    \n",
      "frame= 3975 fps= 52 q=28.0 size=    7680kB time=00:02:38.59 bitrate= 396.7kbits/s speed=2.06x    \n",
      "frame= 4005 fps= 52 q=28.0 size=    7680kB time=00:02:39.61 bitrate= 394.2kbits/s speed=2.06x    \n",
      "frame= 4035 fps= 52 q=28.0 size=    7680kB time=00:02:40.64 bitrate= 391.7kbits/s speed=2.06x    \n",
      "frame= 4066 fps= 52 q=28.0 size=    7680kB time=00:02:42.68 bitrate= 386.7kbits/s speed=2.07x    \n",
      "frame= 4095 fps= 52 q=25.0 size=    7936kB time=00:02:43.71 bitrate= 397.1kbits/s speed=2.07x    \n",
      "frame= 4127 fps= 52 q=28.0 size=    7936kB time=00:02:44.73 bitrate= 394.6kbits/s speed=2.07x    \n",
      "frame= 4163 fps= 52 q=28.0 size=    7936kB time=00:02:46.78 bitrate= 389.8kbits/s speed=2.08x    \n",
      "frame= 4199 fps= 52 q=28.0 size=    8192kB time=00:02:47.80 bitrate= 399.9kbits/s speed=2.08x    \n",
      "frame= 4233 fps= 52 q=28.0 size=    8192kB time=00:02:48.83 bitrate= 397.5kbits/s speed=2.08x    \n",
      "frame= 4269 fps= 52 q=28.0 size=    8192kB time=00:02:50.88 bitrate= 392.7kbits/s speed=2.09x    \n",
      "frame= 4301 fps= 52 q=28.0 size=    8192kB time=00:02:51.90 bitrate= 390.4kbits/s speed=2.09x    \n",
      "frame= 4337 fps= 52 q=28.0 size=    8192kB time=00:02:52.92 bitrate= 388.1kbits/s speed=2.09x    \n",
      "frame= 4354 fps= 52 q=28.0 size=    8448kB time=00:02:53.95 bitrate= 397.8kbits/s speed=2.09x    \n",
      "frame= 4387 fps= 52 q=28.0 size=    8448kB time=00:02:54.97 bitrate= 395.5kbits/s speed=2.09x    \n",
      "frame= 4419 fps= 52 q=28.0 size=    8448kB time=00:02:56.00 bitrate= 393.2kbits/s speed=2.09x    \n",
      "frame= 4448 fps= 52 q=28.0 size=    8448kB time=00:02:58.04 bitrate= 388.7kbits/s speed= 2.1x    \n",
      "frame= 4483 fps= 53 q=28.0 size=    8448kB time=00:02:59.07 bitrate= 386.5kbits/s speed= 2.1x    \n",
      "frame= 4515 fps= 53 q=28.0 size=    8448kB time=00:03:00.09 bitrate= 384.3kbits/s speed= 2.1x    \n",
      "frame= 4551 fps= 53 q=28.0 size=    8448kB time=00:03:02.14 bitrate= 380.0kbits/s speed=2.11x    \n",
      "frame= 4583 fps= 53 q=28.0 size=    8704kB time=00:03:03.16 bitrate= 389.3kbits/s speed=2.11x    \n",
      "frame= 4614 fps= 53 q=28.0 size=    8704kB time=00:03:04.19 bitrate= 387.1kbits/s speed=2.11x    \n",
      "frame= 4648 fps= 53 q=28.0 size=    8704kB time=00:03:06.24 bitrate= 382.9kbits/s speed=2.12x    \n",
      "frame= 4683 fps= 53 q=28.0 size=    8960kB time=00:03:07.26 bitrate= 392.0kbits/s speed=2.12x    \n",
      "frame= 4716 fps= 53 q=28.0 size=    8960kB time=00:03:08.28 bitrate= 389.8kbits/s speed=2.12x    \n",
      "frame= 4751 fps= 53 q=28.0 size=    8960kB time=00:03:10.33 bitrate= 385.6kbits/s speed=2.13x    \n",
      "frame= 4787 fps= 53 q=28.0 size=    8960kB time=00:03:11.36 bitrate= 383.6kbits/s speed=2.13x    \n",
      "frame= 4823 fps= 53 q=28.0 size=    8960kB time=00:03:13.40 bitrate= 379.5kbits/s speed=2.14x    \n",
      "frame= 4857 fps= 53 q=28.0 size=    9216kB time=00:03:14.43 bitrate= 388.3kbits/s speed=2.14x    \n",
      "frame= 4894 fps= 54 q=28.0 size=    9216kB time=00:03:15.48 bitrate= 386.2kbits/s speed=2.14x    \n",
      "frame= 4933 fps= 54 q=28.0 size=    9216kB time=00:03:17.50 bitrate= 382.3kbits/s speed=2.15x    \n",
      "frame= 4967 fps= 54 q=28.0 size=    9216kB time=00:03:18.52 bitrate= 380.3kbits/s speed=2.15x    \n",
      "frame= 5005 fps= 54 q=28.0 size=    9216kB time=00:03:20.57 bitrate= 376.4kbits/s speed=2.16x    \n",
      "frame= 5039 fps= 54 q=28.0 size=    9216kB time=00:03:21.60 bitrate= 374.5kbits/s speed=2.16x    \n",
      "frame= 5075 fps= 54 q=28.0 size=    9216kB time=00:03:23.64 bitrate= 370.7kbits/s speed=2.17x    \n",
      "frame= 5107 fps= 54 q=28.0 size=    9472kB time=00:03:24.67 bitrate= 379.1kbits/s speed=2.16x    \n",
      "frame= 5138 fps= 54 q=28.0 size=    9472kB time=00:03:25.69 bitrate= 377.2kbits/s speed=2.16x    \n",
      "frame= 5171 fps= 54 q=28.0 size=    9472kB time=00:03:27.74 bitrate= 373.5kbits/s speed=2.17x    \n",
      "frame= 5204 fps= 54 q=28.0 size=    9472kB time=00:03:28.76 bitrate= 371.7kbits/s speed=2.17x    \n",
      "frame= 5235 fps= 54 q=28.0 size=    9728kB time=00:03:29.79 bitrate= 379.9kbits/s speed=2.17x    \n",
      "frame= 5263 fps= 54 q=28.0 size=    9728kB time=00:03:30.81 bitrate= 378.0kbits/s speed=2.17x    \n",
      "frame= 5294 fps= 54 q=28.0 size=    9728kB time=00:03:31.87 bitrate= 376.1kbits/s speed=2.17x    \n",
      "frame= 5326 fps= 54 q=28.0 size=    9728kB time=00:03:33.88 bitrate= 372.6kbits/s speed=2.18x    \n",
      "frame= 5359 fps= 54 q=28.0 size=    9984kB time=00:03:34.91 bitrate= 380.6kbits/s speed=2.18x    \n",
      "frame= 5394 fps= 54 q=28.0 size=    9984kB time=00:03:34.94 bitrate= 380.5kbits/s speed=2.17x    \n",
      "frame= 5431 fps= 54 q=28.0 size=    9984kB time=00:03:36.96 bitrate= 377.0kbits/s speed=2.18x    \n",
      "frame= 5463 fps= 54 q=28.0 size=    9984kB time=00:03:37.98 bitrate= 375.2kbits/s speed=2.17x    \n",
      "frame= 5492 fps= 54 q=28.0 size=   10240kB time=00:03:39.00 bitrate= 383.0kbits/s speed=2.17x    \n",
      "frame= 5523 fps= 54 q=28.0 size=   10240kB time=00:03:41.05 bitrate= 379.5kbits/s speed=2.18x    \n",
      "frame= 5548 fps= 54 q=28.0 size=   10240kB time=00:03:42.08 bitrate= 377.7kbits/s speed=2.18x    \n",
      "frame= 5575 fps= 54 q=28.0 size=   10240kB time=00:03:43.10 bitrate= 376.0kbits/s speed=2.18x    \n",
      "frame= 5601 fps= 54 q=28.0 size=   10496kB time=00:03:44.12 bitrate= 383.6kbits/s speed=2.18x    \n",
      "frame= 5633 fps= 54 q=28.0 size=   10496kB time=00:03:45.15 bitrate= 381.9kbits/s speed=2.18x    \n"
     ]
    },
    {
     "name": "stderr",
     "output_type": "stream",
     "text": [
      "frame= 5662 fps= 54 q=28.0 size=   10496kB time=00:03:46.17 bitrate= 380.2kbits/s speed=2.18x    \n",
      "frame= 5694 fps= 54 q=28.0 size=   10496kB time=00:03:47.20 bitrate= 378.4kbits/s speed=2.17x    \n",
      "frame= 5729 fps= 55 q=28.0 size=   10496kB time=00:03:49.24 bitrate= 375.1kbits/s speed=2.18x    \n",
      "frame= 5761 fps= 55 q=28.0 size=   10496kB time=00:03:50.27 bitrate= 373.4kbits/s speed=2.18x    \n",
      "frame= 5796 fps= 55 q=28.0 size=   10752kB time=00:03:52.32 bitrate= 379.1kbits/s speed=2.19x    \n",
      "frame= 5827 fps= 55 q=28.0 size=   10752kB time=00:03:53.34 bitrate= 377.5kbits/s speed=2.19x    \n",
      "frame= 5854 fps= 55 q=28.0 size=   10752kB time=00:03:54.36 bitrate= 375.8kbits/s speed=2.19x    \n",
      "frame= 5887 fps= 55 q=28.0 size=   10752kB time=00:03:55.39 bitrate= 374.2kbits/s speed=2.19x    \n",
      "frame= 5923 fps= 55 q=28.0 size=   11008kB time=00:03:57.44 bitrate= 379.8kbits/s speed= 2.2x    \n",
      "frame= 5955 fps= 55 q=28.0 size=   11008kB time=00:03:58.46 bitrate= 378.2kbits/s speed= 2.2x    \n",
      "frame= 5983 fps= 55 q=28.0 size=   11008kB time=00:03:59.48 bitrate= 376.5kbits/s speed=2.19x    \n",
      "frame= 6016 fps= 55 q=28.0 size=   11008kB time=00:04:00.51 bitrate= 374.9kbits/s speed=2.19x    \n",
      "frame= 6047 fps= 55 q=28.0 size=   11008kB time=00:04:02.56 bitrate= 371.8kbits/s speed= 2.2x    \n",
      "frame= 6081 fps= 55 q=28.0 size=   11008kB time=00:04:03.58 bitrate= 370.2kbits/s speed= 2.2x    \n",
      "frame= 6107 fps= 55 q=28.0 size=   11264kB time=00:04:03.58 bitrate= 378.8kbits/s speed=2.19x    \n",
      "frame= 6132 fps= 55 q=25.0 size=   11264kB time=00:04:04.64 bitrate= 377.2kbits/s speed=2.19x    \n",
      "frame= 6160 fps= 55 q=28.0 size=   11264kB time=00:04:06.65 bitrate= 374.1kbits/s speed= 2.2x    \n",
      "frame= 6182 fps= 55 q=28.0 size=   11520kB time=00:04:06.65 bitrate= 382.6kbits/s speed=2.19x    \n",
      "frame= 6201 fps= 55 q=28.0 size=   11520kB time=00:04:07.68 bitrate= 381.0kbits/s speed=2.19x    \n",
      "frame= 6224 fps= 55 q=28.0 size=   11520kB time=00:04:08.70 bitrate= 379.5kbits/s speed=2.19x    \n",
      "frame= 6254 fps= 55 q=28.0 size=   11776kB time=00:04:09.72 bitrate= 386.3kbits/s speed=2.18x    \n",
      "frame= 6282 fps= 55 q=28.0 size=   11776kB time=00:04:10.75 bitrate= 384.7kbits/s speed=2.18x    \n",
      "frame= 6300 fps= 55 q=28.0 size=   11776kB time=00:04:11.77 bitrate= 383.2kbits/s speed=2.18x    \n",
      "frame= 6317 fps= 55 q=28.0 size=   11776kB time=00:04:12.80 bitrate= 381.6kbits/s speed=2.18x    \n",
      "frame= 6331 fps= 54 q=28.0 size=   11776kB time=00:04:12.80 bitrate= 381.6kbits/s speed=2.17x    \n",
      "frame= 6345 fps= 54 q=28.0 size=   11776kB time=00:04:13.82 bitrate= 380.1kbits/s speed=2.17x    \n",
      "frame= 6363 fps= 54 q=28.0 size=   12032kB time=00:04:14.84 bitrate= 386.8kbits/s speed=2.17x    \n",
      "frame= 6384 fps= 54 q=28.0 size=   12032kB time=00:04:15.87 bitrate= 385.2kbits/s speed=2.17x    \n",
      "frame= 6415 fps= 54 q=28.0 size=   12032kB time=00:04:16.89 bitrate= 383.7kbits/s speed=2.17x    \n",
      "frame= 6444 fps= 54 q=28.0 size=   12032kB time=00:04:17.92 bitrate= 382.2kbits/s speed=2.16x    \n",
      "frame= 6476 fps= 54 q=28.0 size=   12032kB time=00:04:18.94 bitrate= 380.6kbits/s speed=2.16x    \n",
      "frame= 6507 fps= 54 q=28.0 size=   12288kB time=00:04:20.00 bitrate= 387.2kbits/s speed=2.16x    \n",
      "frame= 6538 fps= 54 q=28.0 size=   12288kB time=00:04:22.01 bitrate= 384.2kbits/s speed=2.17x    \n",
      "frame= 6566 fps= 54 q=28.0 size=   12288kB time=00:04:23.04 bitrate= 382.7kbits/s speed=2.17x    \n",
      "frame= 6600 fps= 54 q=28.0 size=   12288kB time=00:04:24.06 bitrate= 381.2kbits/s speed=2.17x    \n",
      "frame= 6632 fps= 54 q=25.0 size=   12544kB time=00:04:25.08 bitrate= 387.6kbits/s speed=2.17x    \n",
      "frame= 6660 fps= 54 q=28.0 size=   12544kB time=00:04:27.13 bitrate= 384.7kbits/s speed=2.18x    \n",
      "frame= 6696 fps= 54 q=28.0 size=   12544kB time=00:04:28.16 bitrate= 383.2kbits/s speed=2.18x    \n",
      "frame= 6728 fps= 54 q=28.0 size=   12544kB time=00:04:29.18 bitrate= 381.7kbits/s speed=2.17x    \n",
      "frame= 6761 fps= 54 q=28.0 size=   12800kB time=00:04:31.23 bitrate= 386.6kbits/s speed=2.18x    \n",
      "frame= 6790 fps= 54 q=28.0 size=   12800kB time=00:04:32.25 bitrate= 385.1kbits/s speed=2.18x    \n",
      "frame= 6826 fps= 54 q=28.0 size=   12800kB time=00:04:33.28 bitrate= 383.7kbits/s speed=2.18x    \n",
      "frame= 6857 fps= 55 q=28.0 size=   12800kB time=00:04:34.33 bitrate= 382.2kbits/s speed=2.18x    \n",
      "frame= 6888 fps= 55 q=28.0 size=   13056kB time=00:04:36.35 bitrate= 387.0kbits/s speed=2.19x    \n",
      "frame= 6921 fps= 55 q=28.0 size=   13056kB time=00:04:37.37 bitrate= 385.6kbits/s speed=2.19x    \n",
      "frame= 6956 fps= 55 q=28.0 size=   13056kB time=00:04:38.40 bitrate= 384.2kbits/s speed=2.19x    \n",
      "frame= 6991 fps= 55 q=28.0 size=   13056kB time=00:04:40.44 bitrate= 381.4kbits/s speed=2.19x    \n",
      "frame= 7020 fps= 55 q=28.0 size=   13056kB time=00:04:41.47 bitrate= 380.0kbits/s speed=2.19x    \n",
      "frame= 7049 fps= 55 q=28.0 size=   13056kB time=00:04:42.49 bitrate= 378.6kbits/s speed=2.19x    \n",
      "frame= 7081 fps= 55 q=28.0 size=   13312kB time=00:04:43.52 bitrate= 384.6kbits/s speed=2.19x    \n",
      "frame= 7114 fps= 55 q=28.0 size=   13312kB time=00:04:45.56 bitrate= 381.9kbits/s speed= 2.2x    \n",
      "frame= 7142 fps= 55 q=28.0 size=   13312kB time=00:04:46.59 bitrate= 380.5kbits/s speed= 2.2x    \n",
      "frame= 7178 fps= 55 q=28.0 size=   13312kB time=00:04:46.59 bitrate= 380.5kbits/s speed=2.19x    \n",
      "frame= 7211 fps= 55 q=28.0 size=   13568kB time=00:04:48.64 bitrate= 385.1kbits/s speed= 2.2x    \n",
      "frame= 7244 fps= 55 q=28.0 size=   13568kB time=00:04:49.66 bitrate= 383.7kbits/s speed= 2.2x    \n",
      "frame= 7278 fps= 55 q=28.0 size=   13568kB time=00:04:50.68 bitrate= 382.4kbits/s speed= 2.2x    \n",
      "frame= 7314 fps= 55 q=28.0 size=   13568kB time=00:04:52.73 bitrate= 379.7kbits/s speed= 2.2x    \n",
      "frame= 7348 fps= 55 q=28.0 size=   13568kB time=00:04:53.76 bitrate= 378.4kbits/s speed= 2.2x    \n",
      "frame= 7382 fps= 55 q=25.0 size=   13568kB time=00:04:54.78 bitrate= 377.1kbits/s speed= 2.2x    \n",
      "frame= 7400 fps= 55 q=28.0 size=   13824kB time=00:04:55.80 bitrate= 382.8kbits/s speed= 2.2x    \n",
      "frame= 7432 fps= 55 q=28.0 size=   13824kB time=00:04:56.83 bitrate= 381.5kbits/s speed= 2.2x    \n",
      "frame= 7461 fps= 55 q=28.0 size=   13824kB time=00:04:58.88 bitrate= 378.9kbits/s speed=2.21x    \n",
      "frame= 7481 fps= 55 q=28.0 size=   13824kB time=00:04:58.88 bitrate= 378.9kbits/s speed= 2.2x    \n",
      "frame= 7500 fps= 55 q=-1.0 Lsize=   14306kB time=00:05:00.00 bitrate= 390.6kbits/s speed=2.19x    \n",
      "video:9454kB audio:4623kB subtitle:0kB other streams:0kB global headers:0kB muxing overhead: 1.621571%\n",
      "[libx264 @ 000001eea4b60740] frame I:32    Avg QP:12.11  size: 96980\n",
      "[libx264 @ 000001eea4b60740] frame P:1891  Avg QP:17.42  size:  2518\n",
      "[libx264 @ 000001eea4b60740] frame B:5577  Avg QP:19.22  size:   326\n",
      "[libx264 @ 000001eea4b60740] consecutive B-frames:  0.7%  0.2%  0.4% 98.6%\n",
      "[libx264 @ 000001eea4b60740] mb I  I16..4: 40.9% 40.1% 19.0%\n",
      "[libx264 @ 000001eea4b60740] mb P  I16..4:  0.5%  0.6%  0.1%  P16..4:  2.1%  0.8%  0.4%  0.0%  0.0%    skip:95.5%\n",
      "[libx264 @ 000001eea4b60740] mb B  I16..4:  0.1%  0.0%  0.0%  B16..8:  1.6%  0.1%  0.0%  direct: 0.1%  skip:98.1%  L0:48.5% L1:48.7% BI: 2.8%\n",
      "[libx264 @ 000001eea4b60740] 8x8 transform intra:42.5% inter:59.6%\n",
      "[libx264 @ 000001eea4b60740] coded y,uvDC,uvAC intra: 23.3% 28.9% 12.9% inter: 0.3% 0.5% 0.0%\n",
      "[libx264 @ 000001eea4b60740] i16 v,h,dc,p: 44% 44%  3% 10%\n",
      "[libx264 @ 000001eea4b60740] i8 v,h,dc,ddl,ddr,vr,hd,vl,hu: 32% 24% 30%  2%  2%  2%  2%  3%  2%\n",
      "[libx264 @ 000001eea4b60740] i4 v,h,dc,ddl,ddr,vr,hd,vl,hu: 30% 29% 13%  4%  5%  5%  5%  4%  6%\n",
      "[libx264 @ 000001eea4b60740] i8c dc,h,v,p: 62% 26%  9%  3%\n",
      "[libx264 @ 000001eea4b60740] Weighted P-Frames: Y:0.0% UV:0.0%\n",
      "[libx264 @ 000001eea4b60740] ref P L0: 75.1%  9.5% 12.2%  3.2%\n",
      "[libx264 @ 000001eea4b60740] ref B L0: 86.1% 12.9%  0.9%\n",
      "[libx264 @ 000001eea4b60740] ref B L1: 97.0%  3.0%\n",
      "[libx264 @ 000001eea4b60740] kb/s:258.14\n"
     ]
    }
   ],
   "source": [
    "%%time\n",
    "# video with -t (it means start with start_time and add end_time in start_time) - fast\n",
    "\n",
    "!ffmpeg -i rana.mp4 -ss 00:01:20 -t 00:05:00 -c:a copy output1.mp4 -y"
   ]
  },
  {
   "cell_type": "code",
   "execution_count": 16,
   "id": "d9b6f467",
   "metadata": {
    "scrolled": true
   },
   "outputs": [
    {
     "name": "stdout",
     "output_type": "stream",
     "text": [
      "Wall time: 207 ms\n"
     ]
    },
    {
     "name": "stderr",
     "output_type": "stream",
     "text": [
      "ffmpeg version 2022-03-21-git-505a7d39cd-full_build-www.gyan.dev Copyright (c) 2000-2022 the FFmpeg developers\n",
      "  built with gcc 11.2.0 (Rev7, Built by MSYS2 project)\n",
      "  configuration: --enable-gpl --enable-version3 --enable-static --disable-w32threads --disable-autodetect --enable-fontconfig --enable-iconv --enable-gnutls --enable-libxml2 --enable-gmp --enable-bzlib --enable-lzma --enable-libsnappy --enable-zlib --enable-librist --enable-libsrt --enable-libssh --enable-libzmq --enable-avisynth --enable-libbluray --enable-libcaca --enable-sdl2 --enable-libdav1d --enable-libdavs2 --enable-libuavs3d --enable-libzvbi --enable-librav1e --enable-libsvtav1 --enable-libwebp --enable-libx264 --enable-libx265 --enable-libxavs2 --enable-libxvid --enable-libaom --enable-libopenjpeg --enable-libvpx --enable-mediafoundation --enable-libass --enable-frei0r --enable-libfreetype --enable-libfribidi --enable-libvidstab --enable-libvmaf --enable-libzimg --enable-amf --enable-cuda-llvm --enable-cuvid --enable-ffnvcodec --enable-nvdec --enable-nvenc --enable-d3d11va --enable-dxva2 --enable-libmfx --enable-libshaderc --enable-vulkan --enable-libplacebo --enable-opencl --enable-libcdio --enable-libgme --enable-libmodplug --enable-libopenmpt --enable-libopencore-amrwb --enable-libmp3lame --enable-libshine --enable-libtheora --enable-libtwolame --enable-libvo-amrwbenc --enable-libilbc --enable-libgsm --enable-libopencore-amrnb --enable-libopus --enable-libspeex --enable-libvorbis --enable-ladspa --enable-libbs2b --enable-libflite --enable-libmysofa --enable-librubberband --enable-libsoxr --enable-chromaprint\n",
      "  libavutil      57. 24.101 / 57. 24.101\n",
      "  libavcodec     59. 25.100 / 59. 25.100\n",
      "  libavformat    59. 20.101 / 59. 20.101\n",
      "  libavdevice    59.  6.100 / 59.  6.100\n",
      "  libavfilter     8. 29.100 /  8. 29.100\n",
      "  libswscale      6.  6.100 /  6.  6.100\n",
      "  libswresample   4.  6.100 /  4.  6.100\n",
      "  libpostproc    56.  5.100 / 56.  5.100\n",
      "Input #0, mov,mp4,m4a,3gp,3g2,mj2, from 'Dubai.mp4':\n",
      "  Metadata:\n",
      "    major_brand     : dash\n",
      "    minor_version   : 0\n",
      "    compatible_brands: iso6avc1mp41\n",
      "    creation_time   : 2022-03-09T11:40:11.000000Z\n",
      "  Duration: 00:11:25.00, start: 0.000000, bitrate: 374 kb/s\n",
      "  Stream #0:0[0x1](und): Video: h264 (Main) (avc1 / 0x31637661), yuv420p(tv, bt709, progressive), 640x360 [SAR 1:1 DAR 16:9], 0 kb/s, 30 fps, 30 tbr, 15360 tbn (default)\n",
      "    Metadata:\n",
      "      creation_time   : 2022-03-09T11:40:11.000000Z\n",
      "      handler_name    : ISO Media file produced by Google Inc.\n",
      "      vendor_id       : [0][0][0][0]\n",
      "Output #0, mp4, to 'output2.mp4':\n",
      "  Metadata:\n",
      "    major_brand     : dash\n",
      "    minor_version   : 0\n",
      "    compatible_brands: iso6avc1mp41\n",
      "    encoder         : Lavf59.20.101\n",
      "  Stream #0:0(und): Video: h264 (Main) (avc1 / 0x31637661), yuv420p(tv, bt709, progressive), 640x360 [SAR 1:1 DAR 16:9], q=2-31, 0 kb/s, 30 fps, 30 tbr, 15360 tbn (default)\n",
      "    Metadata:\n",
      "      creation_time   : 2022-03-09T11:40:11.000000Z\n",
      "      handler_name    : ISO Media file produced by Google Inc.\n",
      "      vendor_id       : [0][0][0][0]\n",
      "Stream mapping:\n",
      "  Stream #0:0 -> #0:0 (copy)\n",
      "Press [q] to stop, [?] for help\n",
      "frame=    0 fps=0.0 q=-1.0 size=       0kB time=00:00:00.00 bitrate=N/A speed=   0x    \n",
      "frame= 6489 fps=0.0 q=-1.0 Lsize=    9437kB time=00:03:39.96 bitrate= 351.5kbits/s speed=4.48e+03x    \n",
      "video:9372kB audio:0kB subtitle:0kB other streams:0kB global headers:0kB muxing overhead: 0.695307%\n"
     ]
    }
   ],
   "source": [
    "%%time\n",
    "# video with -to (it means start with start_time and end with end_time)\n",
    "# (-c:v copy ) after trimming usually 2,3s of black video. but fasted video trimming\n",
    "\n",
    "!ffmpeg -i Dubai.mp4 -ss 00:01:20 -to 00:05:00 -c:v copy -c:a copy output2.mp4 -y"
   ]
  },
  {
   "cell_type": "code",
   "execution_count": 22,
   "id": "ac9b6486",
   "metadata": {
    "scrolled": true
   },
   "outputs": [
    {
     "name": "stdout",
     "output_type": "stream",
     "text": [
      "Wall time: 159 ms\n"
     ]
    },
    {
     "data": {
      "text/plain": [
       "0"
      ]
     },
     "execution_count": 22,
     "metadata": {},
     "output_type": "execute_result"
    }
   ],
   "source": [
    "%%time\n",
    "import datetime \n",
    "start_time = '00:01:00'\n",
    "end_time = '00:07:00' \n",
    "\n",
    "start = datetime.datetime.strptime(start_time, '%H:%M:%S')\n",
    "end = datetime.datetime.strptime(end_time, '%H:%M:%S')\n",
    "\n",
    "time_zero = datetime.datetime.strptime('00:00:00', '%H:%M:%S')\n",
    "complete_time = str(end - start)\n",
    "\n",
    "import subprocess\n",
    "\n",
    "# (subprocess.run) is fast\n",
    "# According to the python documentation subprocess.run waits for the process to end\n",
    "#!ffmpeg -i Dubai.mp4 -ss 00:01:20 -to 00:05:00 -c:v copy -c:a copy output2.mp4 -y\n",
    "#subprocess.run([\"ffmpeg\",'-i','Dubai.mp4','-ss',start_time,'-to',complete_time,'-c:v','copy','-c:a','copy','output3.mp4','-y'])\n",
    "\n",
    "cmd = [\"ffmpeg\",'-i','Dubai.mp4','-ss',start_time,'-to',complete_time,'-c:v','copy','-c:a','copy','output33.mp4','-y']\n",
    "process = subprocess.Popen(cmd,stdout=subprocess.PIPE,stderr=subprocess.PIPE)\n",
    "process.wait()\n",
    "    \n",
    "#!ffmpeg -i Dubai.mp4 -ss 00:01:00 -t complete_time -c:v copy -c:a copy output1.mp4 -y"
   ]
  },
  {
   "cell_type": "code",
   "execution_count": 14,
   "id": "733d63e3",
   "metadata": {},
   "outputs": [
    {
     "name": "stdout",
     "output_type": "stream",
     "text": [
      "1:06:00\n"
     ]
    }
   ],
   "source": [
    "import datetime \n",
    "start_time = '01:01:00'\n",
    "end_time = '02:07:00' \n",
    "\n",
    "start = datetime.datetime.strptime(start_time, '%H:%M:%S')\n",
    "end = datetime.datetime.strptime(end_time, '%H:%M:%S')\n",
    "\n",
    "time_zero = datetime.datetime.strptime('00:00:00', '%H:%M:%S')\n",
    "complete_time = str(end - start)\n",
    "print(complete_time)"
   ]
  },
  {
   "cell_type": "code",
   "execution_count": null,
   "id": "4488286d",
   "metadata": {},
   "outputs": [],
   "source": []
  }
 ],
 "metadata": {
  "kernelspec": {
   "display_name": "Python 3",
   "language": "python",
   "name": "python3"
  },
  "language_info": {
   "codemirror_mode": {
    "name": "ipython",
    "version": 3
   },
   "file_extension": ".py",
   "mimetype": "text/x-python",
   "name": "python",
   "nbconvert_exporter": "python",
   "pygments_lexer": "ipython3",
   "version": "3.8.8"
  }
 },
 "nbformat": 4,
 "nbformat_minor": 5
}
